<?xml version="1.0" encoding="UTF-8"?>
<svg width="750px" height="1334px" viewBox="0 0 750 1334" version="1.1" xmlns="http://www.w3.org/2000/svg" xmlns:xlink="http://www.w3.org/1999/xlink">
    <!-- Generator: Sketch 52.3 (67297) - http://www.bohemiancoding.com/sketch -->
    <title>1-4-4绑定银行卡</title>
    <desc>Created with Sketch.</desc>
    <defs>
        <rect id="path-1" x="0" y="0" width="750" height="90"></rect>
        <filter x="-0.1%" y="-0.6%" width="100.1%" height="101.1%" filterUnits="objectBoundingBox" id="filter-2">
            <feOffset dx="0" dy="-1" in="SourceAlpha" result="shadowOffsetInner1"></feOffset>
            <feComposite in="shadowOffsetInner1" in2="SourceAlpha" operator="arithmetic" k2="-1" k3="1" result="shadowInnerInner1"></feComposite>
            <feColorMatrix values="0 0 0 0 0.866666667   0 0 0 0 0.866666667   0 0 0 0 0.866666667  0 0 0 1 0" type="matrix" in="shadowInnerInner1"></feColorMatrix>
        </filter>
        <rect id="path-3" x="0" y="0" width="750" height="90"></rect>
        <filter x="-0.1%" y="-0.6%" width="100.1%" height="101.1%" filterUnits="objectBoundingBox" id="filter-4">
            <feOffset dx="0" dy="-1" in="SourceAlpha" result="shadowOffsetInner1"></feOffset>
            <feComposite in="shadowOffsetInner1" in2="SourceAlpha" operator="arithmetic" k2="-1" k3="1" result="shadowInnerInner1"></feComposite>
            <feColorMatrix values="0 0 0 0 0.866666667   0 0 0 0 0.866666667   0 0 0 0 0.866666667  0 0 0 1 0" type="matrix" in="shadowInnerInner1"></feColorMatrix>
        </filter>
        <rect id="path-5" x="0" y="0" width="750" height="90"></rect>
        <filter x="-0.1%" y="-0.6%" width="100.1%" height="101.1%" filterUnits="objectBoundingBox" id="filter-6">
            <feOffset dx="0" dy="-1" in="SourceAlpha" result="shadowOffsetInner1"></feOffset>
            <feComposite in="shadowOffsetInner1" in2="SourceAlpha" operator="arithmetic" k2="-1" k3="1" result="shadowInnerInner1"></feComposite>
            <feColorMatrix values="0 0 0 0 0.866666667   0 0 0 0 0.866666667   0 0 0 0 0.866666667  0 0 0 1 0" type="matrix" in="shadowInnerInner1"></feColorMatrix>
        </filter>
        <rect id="path-7" x="0" y="0" width="750" height="90"></rect>
        <filter x="-0.1%" y="-0.6%" width="100.1%" height="101.1%" filterUnits="objectBoundingBox" id="filter-8">
            <feOffset dx="0" dy="-1" in="SourceAlpha" result="shadowOffsetInner1"></feOffset>
            <feComposite in="shadowOffsetInner1" in2="SourceAlpha" operator="arithmetic" k2="-1" k3="1" result="shadowInnerInner1"></feComposite>
            <feColorMatrix values="0 0 0 0 0.866666667   0 0 0 0 0.866666667   0 0 0 0 0.866666667  0 0 0 1 0" type="matrix" in="shadowInnerInner1"></feColorMatrix>
        </filter>
        <rect id="path-9" x="0" y="0" width="750" height="90"></rect>
        <filter x="-0.1%" y="-0.6%" width="100.1%" height="101.1%" filterUnits="objectBoundingBox" id="filter-10">
            <feOffset dx="0" dy="-1" in="SourceAlpha" result="shadowOffsetInner1"></feOffset>
            <feComposite in="shadowOffsetInner1" in2="SourceAlpha" operator="arithmetic" k2="-1" k3="1" result="shadowInnerInner1"></feComposite>
            <feColorMatrix values="0 0 0 0 0.866666667   0 0 0 0 0.866666667   0 0 0 0 0.866666667  0 0 0 1 0" type="matrix" in="shadowInnerInner1"></feColorMatrix>
        </filter>
    </defs>
    <g id="1-4-4绑定银行卡" stroke="none" stroke-width="1" fill="none" fill-rule="evenodd">
        <rect fill="#FAFAFA" x="0" y="0" width="750" height="1334"></rect>
        <g id="noticebar/normal" transform="translate(0.000000, 128.000000)">
            <g>
                <rect id="Rectangle-165" fill="#FDFCEC" x="0" y="0" width="750" height="100"></rect>
                <text id="因全国公民身份系统升级，添加银行卡银行卡" font-family="PingFangSC-Regular, PingFang SC" font-size="28" font-weight="normal" line-spacing="30" fill="#F86E21">
                    <tspan x="36.984" y="48.344">注：银行卡只支持一次绑定，绑定成功后不能修改，请</tspan>
                    <tspan x="246.984" y="78.344">注意填写正确信息！</tspan>
                </text>
            </g>
        </g>
        <g id="input/normal/container" transform="translate(0.000000, 228.000000)">
            <g id="list/bg/normal">
                <g id="bg">
                    <use fill="#FFFFFF" fill-rule="evenodd" xlink:href="#path-1"></use>
                    <use fill="black" fill-opacity="1" filter="url(#filter-2)" xlink:href="#path-1"></use>
                </g>
            </g>
            <g id="input/normal/label" transform="translate(30.000000, 20.000000)" fill="#333333" font-family="PingFangSC-Regular, PingFang SC" font-size="34" font-weight="normal" line-spacing="51">
                <text id="标签">
                    <tspan x="0" y="36">持卡人：</tspan>
                </text>
            </g>
            <g id="input/normal/content/placeholder" transform="translate(224.000000, 20.000000)" fill="#BBBBBB" font-family="PingFangSC-Regular, PingFang SC" font-size="34" font-weight="normal" line-spacing="51">
                <text id="我是暗提示">
                    <tspan x="0" y="36">请填写持卡人姓名</tspan>
                </text>
            </g>
        </g>
        <g id="input/normal/container" transform="translate(0.000000, 318.000000)">
            <g id="list/bg/normal">
                <g id="bg">
                    <use fill="#FFFFFF" fill-rule="evenodd" xlink:href="#path-3"></use>
                    <use fill="black" fill-opacity="1" filter="url(#filter-4)" xlink:href="#path-3"></use>
                </g>
            </g>
            <g id="input/normal/label" transform="translate(30.000000, 20.000000)" fill="#333333" font-family="PingFangSC-Regular, PingFang SC" font-size="34" font-weight="normal" line-spacing="51">
                <text id="标签">
                    <tspan x="0" y="36">开户行：</tspan>
                </text>
            </g>
            <g id="input/normal/content/placeholder" transform="translate(224.000000, 20.000000)" fill="#BBBBBB" font-family="PingFangSC-Regular, PingFang SC" font-size="34" font-weight="normal" line-spacing="51">
                <text id="我是暗提示">
                    <tspan x="0" y="36">请填写开户行名称</tspan>
                </text>
            </g>
        </g>
        <g id="input/normal/container" transform="translate(0.000000, 408.000000)">
            <g id="list/bg/normal">
                <g id="bg">
                    <use fill="#FFFFFF" fill-rule="evenodd" xlink:href="#path-5"></use>
                    <use fill="black" fill-opacity="1" filter="url(#filter-6)" xlink:href="#path-5"></use>
                </g>
            </g>
            <g id="input/normal/label" transform="translate(30.000000, 20.000000)" fill="#333333" font-family="PingFangSC-Regular, PingFang SC" font-size="34" font-weight="normal" line-spacing="51">
                <text id="标签">
                    <tspan x="0" y="36">银行卡号：</tspan>
                </text>
            </g>
            <g id="input/normal/content/placeholder" transform="translate(224.000000, 20.000000)" fill="#BBBBBB" font-family="PingFangSC-Regular, PingFang SC" font-size="34" font-weight="normal" line-spacing="51">
                <text id="我是暗提示">
                    <tspan x="0" y="36">请填写银行卡号</tspan>
                </text>
            </g>
        </g>
        <g id="input/normal/container" transform="translate(0.000000, 498.000000)">
            <g id="list/bg/normal">
                <g id="bg">
                    <use fill="#FFFFFF" fill-rule="evenodd" xlink:href="#path-7"></use>
                    <use fill="black" fill-opacity="1" filter="url(#filter-8)" xlink:href="#path-7"></use>
                </g>
            </g>
            <g id="input/normal/label" transform="translate(30.000000, 20.000000)" fill="#333333" font-family="PingFangSC-Regular, PingFang SC" font-size="34" font-weight="normal" line-spacing="51">
                <text id="标签">
                    <tspan x="0" y="36">身份证号：</tspan>
                </text>
            </g>
            <g id="input/normal/content/placeholder" transform="translate(224.000000, 20.000000)" fill="#BBBBBB" font-family="PingFangSC-Regular, PingFang SC" font-size="34" font-weight="normal" line-spacing="51">
                <text id="我是暗提示">
                    <tspan x="0" y="36">请填写身份证号</tspan>
                </text>
            </g>
        </g>
        <g id="input/normal/container" transform="translate(0.000000, 588.000000)">
            <g id="list/bg/normal">
                <g id="bg">
                    <use fill="#FFFFFF" fill-rule="evenodd" xlink:href="#path-9"></use>
                    <use fill="black" fill-opacity="1" filter="url(#filter-10)" xlink:href="#path-9"></use>
                </g>
            </g>
            <g id="input/normal/label" transform="translate(30.000000, 20.000000)" fill="#333333" font-family="PingFangSC-Regular, PingFang SC" font-size="34" font-weight="normal" line-spacing="51">
                <text id="标签">
                    <tspan x="0" y="36">手机号：</tspan>
                </text>
            </g>
            <g id="input/normal/content/placeholder" transform="translate(224.000000, 20.000000)" fill="#BBBBBB" font-family="PingFangSC-Regular, PingFang SC" font-size="34" font-weight="normal" line-spacing="51">
                <text id="我是暗提示">
                    <tspan x="0" y="36">请填写银行预留手机号</tspan>
                </text>
            </g>
        </g>
        <g id="Group" transform="translate(225.000000, 1224.000000)">
            <rect id="Rectangle" fill="#389E0D" fill-rule="nonzero" x="0" y="0" width="300" height="80" rx="10"></rect>
            <text id="完成" font-family="PingFangSC-Regular, PingFang SC" font-size="30" font-weight="normal" fill="#FFFFFF">
                <tspan x="114" y="51">完成</tspan>
            </text>
        </g>
        <g id="Group">
            <g id="矩形" fill="#282828">
                <polygon id="Rectangle" points="0 0 750 0 750 40 277.535754 40 0 40"></polygon>
            </g>
            <g id="Battery" transform="translate(690.000000, 11.000000)" fill="#FFFFFF">
                <path d="M1.49723053,0 L43.5027695,0 C44.3289522,0 45,0.66749783 45,1.49089813 L45,17.5091019 C45,18.3237799 44.3296671,19 43.5027695,19 L1.49723053,19 C0.671047792,19 0,18.3325022 0,17.5091019 L0,1.49089813 C0,0.676220059 0.670332941,0 1.49723053,0 Z M46,6 L48.0010434,6 C48.5573397,6 49,6.44902676 49,7.00292933 L49,11.9970707 C49,12.5621186 48.5527519,13 48.0010434,13 L46,13 L46,6 Z M1.9996105,1 C1.44754087,1 1,1.45470893 1,1.9999602 L1,17.0000398 C1,17.5523026 1.45381562,18 1.9996105,18 L43.0003895,18 C43.5524591,18 44,17.5452911 44,17.0000398 L44,1.9999602 C44,1.44769743 43.5461844,1 43.0003895,1 L1.9996105,1 Z M2.50359961,2 L42.4964004,2 C42.7794088,2 43,2.22344431 43,2.49907684 L43,16.5009232 C43,16.7763174 42.7745308,17 42.4964004,17 L2.50359961,17 C2.22059119,17 2,16.7765557 2,16.5009232 L2,2.49907684 C2,2.2236826 2.22546922,2 2.50359961,2 Z"></path>
            </g>
            <g id="100%" transform="translate(618.000000, 6.000000)" fill="#FFFFFF" font-family="PingFangSC-Regular, PingFang SC" font-size="24" font-weight="normal">
                <text>
                    <tspan x="4.296" y="23">100%</tspan>
                </text>
            </g>
            <g id="9:41-AM" transform="translate(331.000000, 6.000000)" fill="#FFFFFF" font-family="PingFangSC-Regular, PingFang SC" font-size="24" font-weight="normal">
                <text>
                    <tspan x="-0.344" y="23">9:41 AM</tspan>
                </text>
            </g>
            <g id="Wi-Fi" transform="translate(175.000000, 11.000000)" fill="#FFFFFF">
                <path d="M17.2888416,13.8770086 L13.0450782,18 L8.72033044,13.8106354 C9.75571885,12.6628683 11.2780146,11.9378238 12.9751261,11.9378238 C14.7047232,11.9378238 16.2527479,12.6908911 17.2888416,13.8770086 Z M21.6469927,9.6428849 L19.469243,11.7586586 C17.871261,10.0364701 15.5537672,8.95336788 12.9751261,8.95336788 C10.4272961,8.95336788 8.13440995,10.0107416 6.53859738,11.6971999 L4.35853951,9.58538719 C6.51325276,7.35951787 9.5765446,5.96891192 12.9751261,5.96891192 C16.4028773,5.96891192 19.4895587,7.38349127 21.6469927,9.6428849 Z M26,5.41375865 L23.8237396,7.52808545 C21.1077618,4.73105217 17.2520052,2.98445596 12.9751261,2.98445596 C8.72578428,2.98445596 4.89215961,4.70863309 2.17911585,7.47418882 L0,5.36328862 C3.27109925,2.0579121 7.87502061,0 12.9751261,0 C18.1011398,0 22.7259155,2.07887343 26,5.41375865 Z"></path>
            </g>
            <g id="Carrier" transform="translate(90.000000, 6.000000)" fill="#FFFFFF" font-family="PingFangSC-Regular, PingFang SC" font-size="24" font-weight="normal">
                <text>
                    <tspan x="0" y="23">Sketch</tspan>
                </text>
            </g>
            <g id="Mobile-Signal" transform="translate(13.000000, 15.000000)" fill="#FFFFFF">
                <path d="M5.5,11 C2.46243388,11 0,8.53756612 0,5.5 C0,2.46243388 2.46243388,0 5.5,0 C8.53756612,0 11,2.46243388 11,5.5 C11,8.53756612 8.53756612,11 5.5,11 Z M19.5,11 C16.4624339,11 14,8.53756612 14,5.5 C14,2.46243388 16.4624339,0 19.5,0 C22.5375661,0 25,2.46243388 25,5.5 C25,8.53756612 22.5375661,11 19.5,11 Z M33.5,11 C30.4624339,11 28,8.53756612 28,5.5 C28,2.46243388 30.4624339,0 33.5,0 C36.5375661,0 39,2.46243388 39,5.5 C39,8.53756612 36.5375661,11 33.5,11 Z M47.5,11 C44.4624339,11 42,8.53756612 42,5.5 C42,2.46243388 44.4624339,0 47.5,0 C50.5375661,0 53,2.46243388 53,5.5 C53,8.53756612 50.5375661,11 47.5,11 Z M61.5,11 C58.4624339,11 56,8.53756612 56,5.5 C56,2.46243388 58.4624339,0 61.5,0 C64.5375661,0 67,2.46243388 67,5.5 C67,8.53756612 64.5375661,11 61.5,11 Z"></path>
            </g>
        </g>
        <g id="title" transform="translate(0.000000, 40.000000)">
            <g id="Group">
                <rect id="Rectangle-2" fill="#282828" x="0" y="0" width="750" height="88"></rect>
                <g id="箭头" transform="translate(34.000000, 27.000000)" fill="#FFFFFF">
                    <g transform="translate(9.000000, 17.000000) scale(-1, 1) translate(-9.000000, -17.000000) " id="Shape">
                        <path d="M15.3972094,15.5488901 C15.9861675,14.9599319 16.9406387,14.9599319 17.5295497,15.5488901 L17.5295497,15.5488901 C18.1185079,16.1378482 18.1185079,17.0923194 17.5295497,17.6812304 L2.60269634,32.6080838 C2.01373822,33.1970419 1.05926702,33.1970419 0.470356021,32.6080838 L0.470356021,32.6080838 C-0.118602094,32.0191257 -0.118602094,31.0646545 0.470356021,30.4757435 L15.3972094,15.5488901 L15.3972094,15.5488901 Z" fill-rule="nonzero"></path>
                        <path d="M0.470356021,2.60279058 C-0.118602094,2.01383246 -0.118602094,1.05936126 0.470356021,0.470450262 L0.470356021,0.470450262 C1.05931414,-0.118507853 2.01378534,-0.118507853 2.60269634,0.470450262 L17.5295497,15.3973037 C18.1185079,15.9862618 18.1185079,16.940733 17.5295497,17.529644 L17.5295497,17.529644 C16.9405916,18.1186021 15.9861204,18.1186021 15.3972094,17.529644 L0.470356021,2.60279058 L0.470356021,2.60279058 Z" fill-rule="nonzero"></path>
                    </g>
                </g>
                <rect id="Rectangle-6" fill="#FFFFFF" opacity="0.2" x="584" y="19" width="150" height="50" rx="25"></rect>
                <path d="M659.5,31.5 L659.5,55.5" id="Line" stroke="#FFFFFF" opacity="0.2" stroke-linecap="square"></path>
                <g id="Group-15" transform="translate(684.000000, 31.000000)" fill="#FFFFFF">
                    <circle id="Oval-4" cx="13" cy="13" r="5"></circle>
                    <path d="M13,26 C5.82029825,26 0,20.1797017 0,13 C0,5.82029825 5.82029825,0 13,0 C20.1797017,0 26,5.82029825 26,13 C26,20.1797017 20.1797017,26 13,26 Z M13,23.4 C18.7437614,23.4 23.4,18.7437614 23.4,13 C23.4,7.2562386 18.7437614,2.6 13,2.6 C7.2562386,2.6 2.6,7.2562386 2.6,13 C2.6,18.7437614 7.2562386,23.4 13,23.4 Z" id="Combined-Shape"></path>
                </g>
                <g id="Group-14" transform="translate(605.000000, 39.000000)" fill="#FFFFFF">
                    <circle id="Oval-2" cx="4" cy="6" r="4"></circle>
                    <circle id="Oval-2-Copy-2" cx="17" cy="6" r="6"></circle>
                    <circle id="Oval-2-Copy" cx="30" cy="6" r="4"></circle>
                </g>
                <g id="Group-2" transform="translate(285.000000, 26.000000)" fill="#FFFFFF" font-family="SimHei" font-size="36" font-weight="normal">
                    <text id="政策测评">
                        <tspan x="0.5" y="31">绑定银行卡</tspan>
                    </text>
                </g>
            </g>
        </g>
    </g>
</svg>